<svg width="20" height="19" viewBox="0 0 20 19" fill="none" xmlns="http://www.w3.org/2000/svg">
<path fill-rule="evenodd" clip-rule="evenodd" d="M5.42233 16.8203C5.84433 16.8203 6.18733 17.1633 6.18733 17.5853C6.18733 18.0073 5.84433 18.3493 5.42233 18.3493C5.00033 18.3493 4.65833 18.0073 4.65833 17.5853C4.65833 17.1633 5.00033 16.8203 5.42233 16.8203Z" stroke="#1F1F1F" stroke-width="1.5" stroke-linecap="round" stroke-linejoin="round"/>
<path fill-rule="evenodd" clip-rule="evenodd" d="M16.6747 16.8203C17.0967 16.8203 17.4397 17.1633 17.4397 17.5853C17.4397 18.0073 17.0967 18.3493 16.6747 18.3493C16.2527 18.3493 15.9097 18.0073 15.9097 17.5853C15.9097 17.1633 16.2527 16.8203 16.6747 16.8203Z" stroke="#1F1F1F" stroke-width="1.5" stroke-linecap="round" stroke-linejoin="round"/>
<path d="M0.749878 0.25L2.82988 0.61L3.79288 12.083C3.87088 13.018 4.65188 13.736 5.58988 13.736H16.5019C17.3979 13.736 18.1579 13.078 18.2869 12.19L19.2359 5.632C19.3529 4.823 18.7259 4.099 17.9089 4.099H3.16388" stroke="#1F1F1F" stroke-width="1.5" stroke-linecap="round" stroke-linejoin="round"/>
<path d="M12.1254 7.79504H14.8984" stroke="#1F1F1F" stroke-width="1.5" stroke-linecap="round" stroke-linejoin="round"/>
</svg>
